<svg width="160" height="44" viewBox="0 0 160 44" fill="none" xmlns="http://www.w3.org/2000/svg">
  <defs>
    <linearGradient id="ap-gradient" x1="14" y1="4" x2="38" y2="40" gradientUnits="userSpaceOnUse">
      <stop offset="0" stop-color="#FF6A3D" />
      <stop offset="1" stop-color="#FF3C1D" />
    </linearGradient>
    <linearGradient id="ap-plus" x1="32" y1="9" x2="46" y2="33" gradientUnits="userSpaceOnUse">
      <stop offset="0" stop-color="#10B4FF" />
      <stop offset="1" stop-color="#1461FF" />
    </linearGradient>
  </defs>
  <g filter="url(#ap-shadow)">
    <path d="M30.1 3.5c-3.7 0-7.1 1.5-9.7 4.2l-0.2 0.2c-2.6 2.8-4 6.3-4 10.2 0 3.9 1.4 7.5 4 10.2 2.6 2.7 6.1 4.2 9.9 4.2 3.3 0 6.4-1 8.9-3l0.4-0.3v5.8c-2.9 1.7-6.2 2.6-9.6 2.6-5.6 0-10.7-2-14.4-5.8-3.8-3.8-5.9-8.9-5.9-14.5 0-5.7 2.1-10.7 5.9-14.6C18.9 4 24.1 2 29.9 2c3.4 0 6.7 0.8 9.6 2.5v5.8c-2.6-2-5.7-3-9.4-3z" fill="url(#ap-gradient)" />
  </g>
  <g filter="url(#ap-shadow)">
    <path d="M47.9 11.4h-4.4v6h-6v4.4h6v6h4.4v-6h6v-4.4h-6v-6z" fill="url(#ap-plus)" />
  </g>
  <text x="62" y="19" fill="#F7FAFF" font-family="'Barlow', 'Barlow Condensed', sans-serif" font-size="16" font-weight="600" letter-spacing="0.08em">AUDIO</text>
  <text x="62" y="36" fill="#FF5A33" font-family="'Barlow', 'Barlow Condensed', sans-serif" font-size="18" font-weight="700" letter-spacing="0.08em">PLUS</text>
  <text x="135" y="30" fill="#7FB7FF" font-family="'Barlow', sans-serif" font-size="12" font-weight="500" letter-spacing="0.2em">.COM.AU</text>
  <defs>
    <filter id="ap-shadow" x="0" y="0" width="68" height="44" filterUnits="userSpaceOnUse" color-interpolation-filters="sRGB">
      <feDropShadow dx="0" dy="4" stdDeviation="4" flood-color="rgba(0,0,0,0.35)" />
    </filter>
  </defs>
</svg>
